<svg width="189" height="56" viewBox="0 0 189 56" fill="none" xmlns="http://www.w3.org/2000/svg">
    <path d="M8.46591 48.6731V44.4814H9.5554V51.5723H8.46591V50.372H8.39205C8.22585 50.7321 7.96733 51.0383 7.61648 51.2907C7.26563 51.54 6.82244 51.6646 6.28693 51.6646C5.84375 51.6646 5.44981 51.5676 5.10511 51.3738C4.76042 51.1768 4.48958 50.8813 4.29261 50.4874C4.09564 50.0904 3.99716 49.5903 3.99716 48.987V44.4814H5.08665V48.9132C5.08665 49.4302 5.2313 49.8426 5.5206 50.1504C5.81297 50.4582 6.18537 50.612 6.63778 50.612C6.90862 50.612 7.18407 50.5428 7.46413 50.4043C7.74728 50.2658 7.98426 50.0534 8.17507 49.7672C8.36896 49.481 8.46591 49.1163 8.46591 48.6731ZM12.6404 47.3066V51.5723H11.5509V44.4814H12.6034V45.5893H12.6958C12.8619 45.2292 13.1143 44.9399 13.4529 44.7214C13.7914 44.4998 14.2284 44.389 14.7639 44.389C15.2441 44.389 15.6642 44.4875 16.0242 44.6845C16.3843 44.8784 16.6644 45.1738 16.8644 45.5708C17.0645 45.9648 17.1645 46.4634 17.1645 47.0666V51.5723H16.075V47.1404C16.075 46.5834 15.9304 46.1494 15.6411 45.8386C15.3518 45.5247 14.9548 45.3677 14.45 45.3677C14.1022 45.3677 13.7914 45.4431 13.5175 45.5939C13.2467 45.7447 13.0328 45.9648 12.8758 46.2541C12.7188 46.5434 12.6404 46.8942 12.6404 47.3066ZM21.8329 51.72C21.242 51.72 20.7203 51.5707 20.2679 51.2722C19.8155 50.9706 19.4616 50.5459 19.2061 49.998C18.9507 49.4471 18.823 48.7962 18.823 48.0453C18.823 47.3005 18.9507 46.6542 19.2061 46.1064C19.4616 45.5585 19.8171 45.1354 20.2725 44.8368C20.728 44.5383 21.2543 44.389 21.8514 44.389C22.313 44.389 22.6777 44.466 22.9455 44.6199C23.2163 44.7707 23.4225 44.943 23.5641 45.1369C23.7087 45.3277 23.8211 45.4847 23.9011 45.6078H23.9934V42.1177H25.0829V51.5723H24.0304V50.4828H23.9011C23.8211 50.612 23.7072 50.7752 23.5595 50.9721C23.4118 51.166 23.2009 51.3399 22.927 51.4938C22.6531 51.6446 22.2884 51.72 21.8329 51.72ZM21.9806 50.7413C22.4177 50.7413 22.787 50.6274 23.0886 50.3997C23.3902 50.1689 23.6195 49.8503 23.7765 49.4441C23.9334 49.0347 24.0119 48.5623 24.0119 48.0268C24.0119 47.4975 23.935 47.0343 23.7811 46.6373C23.6272 46.2372 23.3994 45.9263 23.0978 45.7047C22.7962 45.4801 22.4238 45.3677 21.9806 45.3677C21.519 45.3677 21.1343 45.4862 20.8265 45.7232C20.5218 45.9571 20.2926 46.2756 20.1387 46.6788C19.9879 47.0789 19.9125 47.5282 19.9125 48.0268C19.9125 48.5315 19.9894 48.9901 20.1433 49.4025C20.3002 49.8118 20.5311 50.1381 20.8358 50.3812C21.1435 50.6213 21.5252 50.7413 21.9806 50.7413ZM30.2026 51.72C29.5194 51.72 28.93 51.5692 28.4345 51.2676C27.9421 50.9629 27.562 50.5382 27.2942 49.9934C27.0295 49.4456 26.8972 48.8085 26.8972 48.0822C26.8972 47.3559 27.0295 46.7157 27.2942 46.1618C27.562 45.6047 27.9344 45.1708 28.4114 44.8599C28.8915 44.546 29.4516 44.389 30.0918 44.389C30.4611 44.389 30.8258 44.4506 31.1859 44.5737C31.546 44.6968 31.8738 44.8968 32.1692 45.1738C32.4647 45.4477 32.7001 45.8109 32.8755 46.2633C33.051 46.7157 33.1387 47.2728 33.1387 47.9345V48.3961H27.6728V47.4544H32.0307C32.0307 47.0543 31.9507 46.6973 31.7907 46.3833C31.6337 46.0694 31.409 45.8217 31.1167 45.6401C30.8274 45.4585 30.4857 45.3677 30.0918 45.3677C29.6578 45.3677 29.2824 45.4754 28.9654 45.6909C28.6515 45.9032 28.4099 46.1802 28.2406 46.5218C28.0713 46.8635 27.9867 47.2297 27.9867 47.6206V48.2484C27.9867 48.7839 28.079 49.2379 28.2637 49.6103C28.4514 49.9796 28.7115 50.2612 29.0439 50.4551C29.3762 50.6459 29.7625 50.7413 30.2026 50.7413C30.4888 50.7413 30.7473 50.7013 30.9782 50.6213C31.2121 50.5382 31.4136 50.4151 31.5829 50.252C31.7522 50.0858 31.883 49.8796 31.9753 49.6333L33.0279 49.9288C32.9171 50.2858 32.7309 50.5997 32.4693 50.8706C32.2077 51.1383 31.8845 51.3476 31.4998 51.4984C31.1151 51.6461 30.6827 51.72 30.2026 51.72ZM34.796 51.5723V44.4814H35.8485V45.5524H35.9224C36.0517 45.2015 36.2856 44.9168 36.6241 44.6983C36.9627 44.4798 37.3443 44.3706 37.769 44.3706C37.849 44.3706 37.949 44.3721 38.0691 44.3752C38.1891 44.3783 38.2799 44.3829 38.3414 44.389V45.497C38.3045 45.4877 38.2199 45.4739 38.0875 45.4554C37.9583 45.4339 37.8213 45.4231 37.6767 45.4231C37.332 45.4231 37.0242 45.4954 36.7534 45.6401C36.4856 45.7817 36.2733 45.9786 36.1163 46.231C35.9624 46.4803 35.8855 46.765 35.8855 47.085V51.5723H34.796ZM44.6556 46.0694L43.6769 46.3464C43.6154 46.1833 43.5246 46.0248 43.4046 45.8709C43.2876 45.714 43.1276 45.5847 42.9244 45.4831C42.7213 45.3816 42.4613 45.3308 42.1443 45.3308C41.7103 45.3308 41.3487 45.4308 41.0594 45.6309C40.7732 45.8278 40.6301 46.0787 40.6301 46.3833C40.6301 46.6542 40.7285 46.8681 40.9255 47.025C41.1225 47.182 41.4302 47.3128 41.8488 47.4174L42.9014 47.676C43.5354 47.8298 44.0078 48.0653 44.3186 48.3823C44.6295 48.6962 44.7849 49.1009 44.7849 49.5964C44.7849 50.0027 44.6679 50.3658 44.434 50.6859C44.2032 51.006 43.8801 51.2583 43.4646 51.443C43.0491 51.6277 42.5659 51.72 42.015 51.72C41.2918 51.72 40.6932 51.563 40.2192 51.2491C39.7452 50.9352 39.4452 50.4766 39.319 49.8734L40.3531 49.6149C40.4516 49.9965 40.6378 50.2827 40.9117 50.4735C41.1887 50.6644 41.5503 50.7598 41.9965 50.7598C42.5044 50.7598 42.9075 50.652 43.2061 50.4366C43.5077 50.2181 43.6585 49.9565 43.6585 49.6518C43.6585 49.4056 43.5723 49.1994 43.3999 49.0332C43.2276 48.8639 42.9629 48.7377 42.6059 48.6547L41.4241 48.3777C40.7747 48.2238 40.2977 47.9853 39.993 47.6621C39.6914 47.3359 39.5406 46.9281 39.5406 46.4387C39.5406 46.0386 39.6529 45.6847 39.8776 45.377C40.1053 45.0692 40.4146 44.8276 40.8055 44.6522C41.1994 44.4767 41.6457 44.389 42.1443 44.389C42.846 44.389 43.3969 44.5429 43.797 44.8507C44.2001 45.1584 44.4864 45.5647 44.6556 46.0694ZM49.5087 44.4814V45.4047H45.834V44.4814H49.5087ZM46.905 42.7825H47.9945V49.541C47.9945 49.8488 48.0391 50.0796 48.1284 50.2335C48.2207 50.3843 48.3377 50.4859 48.4792 50.5382C48.6239 50.5874 48.7762 50.612 48.9363 50.612C49.0563 50.612 49.1548 50.6059 49.2317 50.5936C49.3087 50.5782 49.3702 50.5659 49.4164 50.5566L49.638 51.5353C49.5641 51.563 49.461 51.5907 49.3287 51.6184C49.1963 51.6492 49.0286 51.6646 48.8255 51.6646C48.5177 51.6646 48.2161 51.5984 47.9206 51.4661C47.6283 51.3337 47.3851 51.1322 47.1912 50.8613C47.0004 50.5905 46.905 50.2489 46.905 49.8365V42.7825ZM53.2342 51.7385C52.7849 51.7385 52.3771 51.6538 52.0108 51.4846C51.6446 51.3122 51.3538 51.0645 51.1383 50.7413C50.9229 50.4151 50.8152 50.0211 50.8152 49.5595C50.8152 49.1532 50.8952 48.8239 51.0552 48.5716C51.2153 48.3161 51.4292 48.1161 51.6969 47.9714C51.9647 47.8268 52.2601 47.719 52.5833 47.6483C52.9095 47.5744 53.2373 47.5159 53.5666 47.4728C53.9975 47.4174 54.3468 47.3759 54.6145 47.3482C54.8854 47.3174 55.0823 47.2666 55.2054 47.1958C55.3316 47.1251 55.3947 47.002 55.3947 46.8265V46.7896C55.3947 46.3341 55.2701 45.9802 55.0208 45.7278C54.7746 45.4754 54.4006 45.3493 53.899 45.3493C53.3788 45.3493 52.9711 45.4631 52.6756 45.6909C52.3801 45.9186 52.1724 46.1618 52.0524 46.4203L51.0183 46.051C51.2029 45.6201 51.4492 45.2846 51.7569 45.0446C52.0678 44.8014 52.4063 44.6322 52.7725 44.5368C53.1419 44.4383 53.505 44.389 53.862 44.389C54.0898 44.389 54.3514 44.4167 54.6468 44.4721C54.9454 44.5244 55.2331 44.6337 55.5101 44.7999C55.7902 44.9661 56.0225 45.2169 56.2072 45.5524C56.3919 45.8878 56.4842 46.3372 56.4842 46.9004V51.5723H55.3947V50.612H55.3393C55.2654 50.7659 55.1423 50.9306 54.97 51.106C54.7976 51.2814 54.5684 51.4307 54.2821 51.5538C53.9959 51.6769 53.6466 51.7385 53.2342 51.7385ZM53.4004 50.7598C53.8313 50.7598 54.1944 50.6751 54.4899 50.5059C54.7884 50.3366 55.0131 50.1181 55.1639 49.8503C55.3178 49.5826 55.3947 49.301 55.3947 49.0055V48.0083C55.3485 48.0637 55.247 48.1145 55.09 48.1607C54.9361 48.2038 54.7576 48.2422 54.5545 48.2761C54.3545 48.3069 54.159 48.3346 53.9682 48.3592C53.7805 48.3807 53.6281 48.3992 53.5112 48.4146C53.228 48.4515 52.9634 48.5115 52.7172 48.5946C52.474 48.6747 52.277 48.7962 52.1262 48.9593C51.9785 49.1194 51.9047 49.3379 51.9047 49.6149C51.9047 49.9934 52.0447 50.2797 52.3248 50.4735C52.6079 50.6644 52.9664 50.7598 53.4004 50.7598ZM59.5622 47.3066V51.5723H58.4727V44.4814H59.5253V45.5893H59.6176C59.7838 45.2292 60.0362 44.9399 60.3747 44.7214C60.7133 44.4998 61.1503 44.389 61.6858 44.389C62.1659 44.389 62.586 44.4875 62.9461 44.6845C63.3062 44.8784 63.5863 45.1738 63.7863 45.5708C63.9864 45.9648 64.0864 46.4634 64.0864 47.0666V51.5723H62.9969V47.1404C62.9969 46.5834 62.8522 46.1494 62.5629 45.8386C62.2736 45.5247 61.8766 45.3677 61.3719 45.3677C61.0241 45.3677 60.7133 45.4431 60.4394 45.5939C60.1685 45.7447 59.9546 45.9648 59.7977 46.2541C59.6407 46.5434 59.5622 46.8942 59.5622 47.3066ZM68.7548 51.72C68.1639 51.72 67.6422 51.5707 67.1898 51.2722C66.7374 50.9706 66.3835 50.5459 66.128 49.998C65.8726 49.4471 65.7449 48.7962 65.7449 48.0453C65.7449 47.3005 65.8726 46.6542 66.128 46.1064C66.3835 45.5585 66.7389 45.1354 67.1944 44.8368C67.6499 44.5383 68.1762 44.389 68.7733 44.389C69.2349 44.389 69.5996 44.466 69.8674 44.6199C70.1382 44.7707 70.3444 44.943 70.486 45.1369C70.6306 45.3277 70.743 45.4847 70.823 45.6078H70.9153V42.1177H72.0048V51.5723H70.9522V50.4828H70.823C70.743 50.612 70.6291 50.7752 70.4814 50.9721C70.3336 51.166 70.1228 51.3399 69.8489 51.4938C69.575 51.6446 69.2103 51.72 68.7548 51.72ZM68.9025 50.7413C69.3395 50.7413 69.7089 50.6274 70.0105 50.3997C70.3121 50.1689 70.5414 49.8503 70.6983 49.4441C70.8553 49.0347 70.9338 48.5623 70.9338 48.0268C70.9338 47.4975 70.8568 47.0343 70.7029 46.6373C70.5491 46.2372 70.3213 45.9263 70.0197 45.7047C69.7181 45.4801 69.3457 45.3677 68.9025 45.3677C68.4409 45.3677 68.0562 45.4862 67.7484 45.7232C67.4437 45.9571 67.2144 46.2756 67.0605 46.6788C66.9097 47.0789 66.8343 47.5282 66.8343 48.0268C66.8343 48.5315 66.9113 48.9901 67.0652 49.4025C67.2221 49.8118 67.4529 50.1381 67.7576 50.3812C68.0654 50.6213 68.447 50.7413 68.9025 50.7413ZM74.1515 51.5723V44.4814H75.2409V51.5723H74.1515ZM74.7054 43.2995C74.4931 43.2995 74.31 43.2272 74.1561 43.0826C74.0053 42.9379 73.9299 42.764 73.9299 42.5609C73.9299 42.3578 74.0053 42.1839 74.1561 42.0392C74.31 41.8946 74.4931 41.8223 74.7054 41.8223C74.9178 41.8223 75.0994 41.8946 75.2502 42.0392C75.4041 42.1839 75.481 42.3578 75.481 42.5609C75.481 42.764 75.4041 42.9379 75.2502 43.0826C75.0994 43.2272 74.9178 43.2995 74.7054 43.2995ZM78.3259 47.3066V51.5723H77.2364V44.4814H78.289V45.5893H78.3813C78.5475 45.2292 78.7999 44.9399 79.1384 44.7214C79.4769 44.4998 79.914 44.389 80.4495 44.389C80.9296 44.389 81.3497 44.4875 81.7098 44.6845C82.0699 44.8784 82.3499 45.1738 82.55 45.5708C82.75 45.9648 82.8501 46.4634 82.8501 47.0666V51.5723H81.7606V47.1404C81.7606 46.5834 81.6159 46.1494 81.3266 45.8386C81.0373 45.5247 80.6403 45.3677 80.1356 45.3677C79.7878 45.3677 79.4769 45.4431 79.203 45.5939C78.9322 45.7447 78.7183 45.9648 78.5613 46.2541C78.4044 46.5434 78.3259 46.8942 78.3259 47.3066ZM87.7031 54.3791C87.1768 54.3791 86.7244 54.3114 86.3459 54.176C85.9673 54.0436 85.6519 53.8682 85.3995 53.6497C85.1502 53.4342 84.9517 53.2034 84.804 52.9572L85.6719 52.3478C85.7704 52.4771 85.895 52.6248 86.0458 52.791C86.1966 52.9603 86.4028 53.1065 86.6644 53.2296C86.9291 53.3558 87.2753 53.4189 87.7031 53.4189C88.2756 53.4189 88.748 53.2804 89.1204 53.0034C89.4928 52.7264 89.679 52.2924 89.679 51.7015V50.2612H89.5866C89.5066 50.3904 89.3928 50.5505 89.245 50.7413C89.1004 50.929 88.8911 51.0968 88.6172 51.2445C88.3464 51.3891 87.9801 51.4615 87.5185 51.4615C86.946 51.4615 86.4321 51.3261 85.9766 51.0552C85.5241 50.7844 85.1656 50.3904 84.9009 49.8734C84.6393 49.3564 84.5085 48.7285 84.5085 47.9899C84.5085 47.2636 84.6362 46.6311 84.8917 46.0925C85.1471 45.5508 85.5026 45.1323 85.9581 44.8368C86.4136 44.5383 86.9399 44.389 87.5369 44.389C87.9986 44.389 88.3648 44.466 88.6357 44.6199C88.9096 44.7707 89.1188 44.943 89.2635 45.1369C89.4112 45.3277 89.5251 45.4847 89.6051 45.6078H89.7159V44.4814H90.7685V51.7754C90.7685 52.3848 90.63 52.8803 90.353 53.2619C90.0791 53.6466 89.7098 53.9282 89.245 54.1067C88.7834 54.2883 88.2694 54.3791 87.7031 54.3791ZM87.6662 50.4828C88.1032 50.4828 88.4725 50.3828 88.7741 50.1827C89.0758 49.9827 89.305 49.6949 89.462 49.3194C89.619 48.944 89.6974 48.4946 89.6974 47.9714C89.6974 47.4605 89.6205 47.0096 89.4666 46.6188C89.3127 46.2279 89.085 45.9217 88.7834 45.7001C88.4818 45.4785 88.1094 45.3677 87.6662 45.3677C87.2045 45.3677 86.8198 45.4847 86.5121 45.7186C86.2074 45.9525 85.9781 46.2664 85.8242 46.6603C85.6734 47.0543 85.598 47.4913 85.598 47.9714C85.598 48.4638 85.675 48.8993 85.8288 49.2779C85.9858 49.6533 86.2166 49.9488 86.5213 50.1642C86.8291 50.3766 87.2107 50.4828 87.6662 50.4828Z" fill="#A55C17"/>
    <path d="M96.419 51.5723V44.4814H97.4716V45.5893H97.5639C97.7116 45.2108 97.9502 44.9168 98.2795 44.7076C98.6088 44.4952 99.0043 44.389 99.4659 44.389C99.9337 44.389 100.323 44.4952 100.634 44.7076C100.948 44.9168 101.192 45.2108 101.368 45.5893H101.442C101.623 45.2231 101.896 44.9322 102.259 44.7168C102.622 44.4983 103.058 44.389 103.565 44.389C104.199 44.389 104.718 44.5875 105.121 44.9846C105.524 45.3785 105.726 45.9925 105.726 46.8265V51.5723H104.636V46.8265C104.636 46.3033 104.493 45.9294 104.207 45.7047C103.921 45.4801 103.584 45.3677 103.196 45.3677C102.697 45.3677 102.311 45.5185 102.037 45.8201C101.763 46.1187 101.626 46.4972 101.626 46.9558V51.5723H100.518V46.7157C100.518 46.3126 100.388 45.9879 100.126 45.7417C99.8645 45.4924 99.5275 45.3677 99.1151 45.3677C98.8319 45.3677 98.5672 45.4431 98.321 45.5939C98.0779 45.7447 97.8809 45.954 97.7301 46.2218C97.5824 46.4864 97.5085 46.7927 97.5085 47.1404V51.5723H96.419ZM108.166 54.2314C107.981 54.2314 107.816 54.216 107.672 54.1852C107.527 54.1575 107.427 54.1298 107.372 54.1021L107.649 53.1419C107.913 53.2096 108.147 53.2342 108.35 53.2157C108.553 53.1973 108.733 53.1065 108.89 52.9434C109.05 52.7833 109.197 52.5233 109.329 52.1632L109.532 51.6092L106.91 44.4814H108.092L110.049 50.1319H110.123L112.08 44.4814H113.262L110.252 52.6064C110.117 52.9726 109.949 53.2757 109.749 53.5158C109.549 53.7589 109.317 53.939 109.052 54.0559C108.79 54.1729 108.495 54.2314 108.166 54.2314Z" fill="#4BBEF0"/>
    <path d="M118.357 51.5723V44.4814H119.446V51.5723H118.357ZM118.911 43.2995C118.698 43.2995 118.515 43.2272 118.361 43.0826C118.21 42.9379 118.135 42.764 118.135 42.5609C118.135 42.3578 118.21 42.1839 118.361 42.0392C118.515 41.8946 118.698 41.8223 118.911 41.8223C119.123 41.8223 119.304 41.8946 119.455 42.0392C119.609 42.1839 119.686 42.3578 119.686 42.5609C119.686 42.764 119.609 42.9379 119.455 43.0826C119.304 43.2272 119.123 43.2995 118.911 43.2995ZM121.441 51.5723V44.4814H122.494V45.5893H122.586C122.734 45.2108 122.973 44.9168 123.302 44.7076C123.631 44.4952 124.027 44.389 124.488 44.389C124.956 44.389 125.345 44.4952 125.656 44.7076C125.97 44.9168 126.215 45.2108 126.39 45.5893H126.464C126.646 45.2231 126.918 44.9322 127.281 44.7168C127.645 44.4983 128.08 44.389 128.588 44.389C129.222 44.389 129.74 44.5875 130.144 44.9846C130.547 45.3785 130.748 45.9925 130.748 46.8265V51.5723H129.659V46.8265C129.659 46.3033 129.516 45.9294 129.229 45.7047C128.943 45.4801 128.606 45.3677 128.218 45.3677C127.72 45.3677 127.334 45.5185 127.06 45.8201C126.786 46.1187 126.649 46.4972 126.649 46.9558V51.5723H125.541V46.7157C125.541 46.3126 125.41 45.9879 125.149 45.7417C124.887 45.4924 124.55 45.3677 124.138 45.3677C123.854 45.3677 123.59 45.4431 123.343 45.5939C123.1 45.7447 122.903 45.954 122.753 46.2218C122.605 46.4864 122.531 46.7927 122.531 47.1404V51.5723H121.441ZM134.827 51.7385C134.378 51.7385 133.97 51.6538 133.604 51.4846C133.237 51.3122 132.947 51.0645 132.731 50.7413C132.516 50.4151 132.408 50.0211 132.408 49.5595C132.408 49.1532 132.488 48.8239 132.648 48.5716C132.808 48.3161 133.022 48.1161 133.29 47.9714C133.557 47.8268 133.853 47.719 134.176 47.6483C134.502 47.5744 134.83 47.5159 135.159 47.4728C135.59 47.4174 135.94 47.3759 136.207 47.3482C136.478 47.3174 136.675 47.2666 136.798 47.1958C136.924 47.1251 136.987 47.002 136.987 46.8265V46.7896C136.987 46.3341 136.863 45.9802 136.614 45.7278C136.367 45.4754 135.993 45.3493 135.492 45.3493C134.972 45.3493 134.564 45.4631 134.268 45.6909C133.973 45.9186 133.765 46.1618 133.645 46.4203L132.611 46.051C132.796 45.6201 133.042 45.2846 133.35 45.0446C133.661 44.8014 133.999 44.6322 134.365 44.5368C134.735 44.4383 135.098 44.389 135.455 44.389C135.683 44.389 135.944 44.4167 136.24 44.4721C136.538 44.5244 136.826 44.6337 137.103 44.7999C137.383 44.9661 137.615 45.2169 137.8 45.5524C137.985 45.8878 138.077 46.3372 138.077 46.9004V51.5723H136.987V50.612H136.932C136.858 50.7659 136.735 50.9306 136.563 51.106C136.39 51.2814 136.161 51.4307 135.875 51.5538C135.589 51.6769 135.239 51.7385 134.827 51.7385ZM134.993 50.7598C135.424 50.7598 135.787 50.6751 136.083 50.5059C136.381 50.3366 136.606 50.1181 136.757 49.8503C136.911 49.5826 136.987 49.301 136.987 49.0055V48.0083C136.941 48.0637 136.84 48.1145 136.683 48.1607C136.529 48.2038 136.35 48.2422 136.147 48.2761C135.947 48.3069 135.752 48.3346 135.561 48.3592C135.373 48.3807 135.221 48.3992 135.104 48.4146C134.821 48.4515 134.556 48.5115 134.31 48.5946C134.067 48.6747 133.87 48.7962 133.719 48.9593C133.571 49.1194 133.497 49.3379 133.497 49.6149C133.497 49.9934 133.637 50.2797 133.918 50.4735C134.201 50.6644 134.559 50.7598 134.993 50.7598ZM142.928 54.3791C142.401 54.3791 141.949 54.3114 141.57 54.176C141.192 54.0436 140.876 53.8682 140.624 53.6497C140.375 53.4342 140.176 53.2034 140.029 52.9572L140.896 52.3478C140.995 52.4771 141.12 52.6248 141.27 52.791C141.421 52.9603 141.627 53.1065 141.889 53.2296C142.154 53.3558 142.5 53.4189 142.928 53.4189C143.5 53.4189 143.973 53.2804 144.345 53.0034C144.717 52.7264 144.904 52.2924 144.904 51.7015V50.2612H144.811C144.731 50.3904 144.617 50.5505 144.47 50.7413C144.325 50.929 144.116 51.0968 143.842 51.2445C143.571 51.3891 143.205 51.4615 142.743 51.4615C142.171 51.4615 141.657 51.3261 141.201 51.0552C140.749 50.7844 140.39 50.3904 140.126 49.8734C139.864 49.3564 139.733 48.7285 139.733 47.9899C139.733 47.2636 139.861 46.6311 140.116 46.0925C140.372 45.5508 140.727 45.1323 141.183 44.8368C141.638 44.5383 142.164 44.389 142.762 44.389C143.223 44.389 143.589 44.466 143.86 44.6199C144.134 44.7707 144.343 44.943 144.488 45.1369C144.636 45.3277 144.75 45.4847 144.83 45.6078H144.941V44.4814H145.993V51.7754C145.993 52.3848 145.855 52.8803 145.578 53.2619C145.304 53.6466 144.934 53.9282 144.47 54.1067C144.008 54.2883 143.494 54.3791 142.928 54.3791ZM142.891 50.4828C143.328 50.4828 143.697 50.3828 143.999 50.1827C144.3 49.9827 144.53 49.6949 144.687 49.3194C144.844 48.944 144.922 48.4946 144.922 47.9714C144.922 47.4605 144.845 47.0096 144.691 46.6188C144.537 46.2279 144.31 45.9217 144.008 45.7001C143.706 45.4785 143.334 45.3677 142.891 45.3677C142.429 45.3677 142.044 45.4847 141.737 45.7186C141.432 45.9525 141.203 46.2664 141.049 46.6603C140.898 47.0543 140.823 47.4913 140.823 47.9714C140.823 48.4638 140.9 48.8993 141.053 49.2779C141.21 49.6533 141.441 49.9488 141.746 50.1642C142.054 50.3766 142.435 50.4828 142.891 50.4828ZM147.987 51.5723V44.4814H149.077V51.5723H147.987ZM148.541 43.2995C148.329 43.2995 148.146 43.2272 147.992 43.0826C147.841 42.9379 147.766 42.764 147.766 42.5609C147.766 42.3578 147.841 42.1839 147.992 42.0392C148.146 41.8946 148.329 41.8223 148.541 41.8223C148.754 41.8223 148.935 41.8946 149.086 42.0392C149.24 42.1839 149.317 42.3578 149.317 42.5609C149.317 42.764 149.24 42.9379 149.086 43.0826C148.935 43.2272 148.754 43.2995 148.541 43.2995ZM152.162 47.3066V51.5723H151.072V44.4814H152.125V45.5893H152.217C152.383 45.2292 152.636 44.9399 152.974 44.7214C153.313 44.4998 153.75 44.389 154.285 44.389C154.766 44.389 155.186 44.4875 155.546 44.6845C155.906 44.8784 156.186 45.1738 156.386 45.5708C156.586 45.9648 156.686 46.4634 156.686 47.0666V51.5723H155.597V47.1404C155.597 46.5834 155.452 46.1494 155.163 45.8386C154.873 45.5247 154.476 45.3677 153.972 45.3677C153.624 45.3677 153.313 45.4431 153.039 45.5939C152.768 45.7447 152.554 45.9648 152.397 46.2541C152.24 46.5434 152.162 46.8942 152.162 47.3066ZM160.763 51.7385C160.314 51.7385 159.906 51.6538 159.54 51.4846C159.174 51.3122 158.883 51.0645 158.668 50.7413C158.452 50.4151 158.344 50.0211 158.344 49.5595C158.344 49.1532 158.424 48.8239 158.585 48.5716C158.745 48.3161 158.958 48.1161 159.226 47.9714C159.494 47.8268 159.789 47.719 160.113 47.6483C160.439 47.5744 160.767 47.5159 161.096 47.4728C161.527 47.4174 161.876 47.3759 162.144 47.3482C162.415 47.3174 162.612 47.2666 162.735 47.1958C162.861 47.1251 162.924 47.002 162.924 46.8265V46.7896C162.924 46.3341 162.799 45.9802 162.55 45.7278C162.304 45.4754 161.93 45.3493 161.428 45.3493C160.908 45.3493 160.5 45.4631 160.205 45.6909C159.909 45.9186 159.702 46.1618 159.582 46.4203L158.548 46.051C158.732 45.6201 158.978 45.2846 159.286 45.0446C159.597 44.8014 159.936 44.6322 160.302 44.5368C160.671 44.4383 161.034 44.389 161.391 44.389C161.619 44.389 161.881 44.4167 162.176 44.4721C162.475 44.5244 162.762 44.6337 163.039 44.7999C163.319 44.9661 163.552 45.2169 163.737 45.5524C163.921 45.8878 164.013 46.3372 164.013 46.9004V51.5723H162.924V50.612H162.869C162.795 50.7659 162.672 50.9306 162.499 51.106C162.327 51.2814 162.098 51.4307 161.811 51.5538C161.525 51.6769 161.176 51.7385 160.763 51.7385ZM160.93 50.7598C161.361 50.7598 161.724 50.6751 162.019 50.5059C162.318 50.3366 162.542 50.1181 162.693 49.8503C162.847 49.5826 162.924 49.301 162.924 49.0055V48.0083C162.878 48.0637 162.776 48.1145 162.619 48.1607C162.465 48.2038 162.287 48.2422 162.084 48.2761C161.884 48.3069 161.688 48.3346 161.498 48.3592C161.31 48.3807 161.157 48.3992 161.04 48.4146C160.757 48.4515 160.493 48.5115 160.246 48.5946C160.003 48.6747 159.806 48.7962 159.656 48.9593C159.508 49.1194 159.434 49.3379 159.434 49.6149C159.434 49.9934 159.574 50.2797 159.854 50.4735C160.137 50.6644 160.496 50.7598 160.93 50.7598ZM169.086 44.4814V45.4047H165.411V44.4814H169.086ZM166.482 42.7825H167.572V49.541C167.572 49.8488 167.616 50.0796 167.706 50.2335C167.798 50.3843 167.915 50.4859 168.056 50.5382C168.201 50.5874 168.353 50.612 168.513 50.612C168.633 50.612 168.732 50.6059 168.809 50.5936C168.886 50.5782 168.947 50.5659 168.994 50.5566L169.215 51.5353C169.141 51.563 169.038 51.5907 168.906 51.6184C168.773 51.6492 168.606 51.6646 168.403 51.6646C168.095 51.6646 167.793 51.5984 167.498 51.4661C167.205 51.3337 166.962 51.1322 166.768 50.8613C166.578 50.5905 166.482 50.2489 166.482 49.8365V42.7825ZM170.725 51.5723V44.4814H171.814V51.5723H170.725ZM171.279 43.2995C171.066 43.2995 170.883 43.2272 170.729 43.0826C170.579 42.9379 170.503 42.764 170.503 42.5609C170.503 42.3578 170.579 42.1839 170.729 42.0392C170.883 41.8946 171.066 41.8223 171.279 41.8223C171.491 41.8223 171.673 41.8946 171.823 42.0392C171.977 42.1839 172.054 42.3578 172.054 42.5609C172.054 42.764 171.977 42.9379 171.823 43.0826C171.673 43.2272 171.491 43.2995 171.279 43.2995ZM176.69 51.72C176.05 51.72 175.489 51.5676 175.005 51.263C174.525 50.9583 174.15 50.532 173.879 49.9842C173.611 49.4364 173.477 48.7962 173.477 48.0637C173.477 47.3251 173.611 46.6803 173.879 46.1294C174.15 45.5785 174.525 45.1507 175.005 44.8461C175.489 44.5414 176.05 44.389 176.69 44.389C177.33 44.389 177.891 44.5414 178.371 44.8461C178.854 45.1507 179.229 45.5785 179.497 46.1294C179.768 46.6803 179.903 47.3251 179.903 48.0637C179.903 48.7962 179.768 49.4364 179.497 49.9842C179.229 50.532 178.854 50.9583 178.371 51.263C177.891 51.5676 177.33 51.72 176.69 51.72ZM176.69 50.7413C177.177 50.7413 177.577 50.6167 177.891 50.3674C178.205 50.1181 178.437 49.7903 178.588 49.3841C178.739 48.9778 178.814 48.5377 178.814 48.0637C178.814 47.5898 178.739 47.1481 178.588 46.7388C178.437 46.3295 178.205 45.9986 177.891 45.7463C177.577 45.4939 177.177 45.3677 176.69 45.3677C176.204 45.3677 175.804 45.4939 175.49 45.7463C175.176 45.9986 174.944 46.3295 174.793 46.7388C174.642 47.1481 174.567 47.5898 174.567 48.0637C174.567 48.5377 174.642 48.9778 174.793 49.3841C174.944 49.7903 175.176 50.1181 175.49 50.3674C175.804 50.6167 176.204 50.7413 176.69 50.7413ZM182.656 47.3066V51.5723H181.566V44.4814H182.619V45.5893H182.711C182.878 45.2292 183.13 44.9399 183.468 44.7214C183.807 44.4998 184.244 44.389 184.78 44.389C185.26 44.389 185.68 44.4875 186.04 44.6845C186.4 44.8784 186.68 45.1738 186.88 45.5708C187.08 45.9648 187.18 46.4634 187.18 47.0666V51.5723H186.091V47.1404C186.091 46.5834 185.946 46.1494 185.657 45.8386C185.367 45.5247 184.97 45.3677 184.466 45.3677C184.118 45.3677 183.807 45.4431 183.533 45.5939C183.262 45.7447 183.048 45.9648 182.891 46.2541C182.734 46.5434 182.656 46.8942 182.656 47.3066Z" fill="#0BC213"/>
    <mask id="mask0_692_112448" style="mask-type:alpha" maskUnits="userSpaceOnUse" x="16" y="15" width="5" height="27">
        <rect width="4.03172" height="25.8193" transform="matrix(-1 0 0 1 20.3203 15.877)" fill="black"/>
    </mask>
    <g mask="url(#mask0_692_112448)">
        <g filter="url(#filter0_d_692_112448)">
            <path d="M17.2808 40.8091V18.3956H20.6078V21.8977H20.8996C21.3666 20.7012 22.1205 19.7722 23.1614 19.1107C24.2023 18.4394 25.4524 18.1038 26.9116 18.1038C28.3902 18.1038 29.6208 18.4394 30.6034 19.1107C31.5956 19.7722 32.369 20.7012 32.9235 21.8977H33.157C33.7309 20.7401 34.5919 19.8208 35.7398 19.1398C36.8877 18.4492 38.2642 18.1038 39.8693 18.1038C41.8733 18.1038 43.5125 18.7313 44.7869 19.9862C46.0612 21.2314 46.6984 23.1721 46.6984 25.8084V40.8091H43.2547V25.8084C43.2547 24.1547 42.8023 22.9727 41.8976 22.2625C40.9929 21.5524 39.9277 21.1973 38.702 21.1973C37.126 21.1973 35.9052 21.674 35.0394 22.6274C34.1736 23.571 33.7407 24.7675 33.7407 26.217V40.8091H30.2386V25.4582C30.2386 24.1838 29.8251 23.1575 28.9982 22.3793C28.1714 21.5913 27.1061 21.1973 25.8026 21.1973C24.9076 21.1973 24.071 21.4357 23.2927 21.9123C22.5242 22.389 21.9016 23.0505 21.4249 23.8969C20.958 24.7335 20.7245 25.7014 20.7245 26.8007V40.8091H17.2808Z" fill="#4FC8FC" fill-opacity="0.95" shape-rendering="crispEdges"/>
        </g>
    </g>
    <g filter="url(#filter1_d_692_112448)">
        <path d="M17.277 31.6453V18.3956H20.7208V40.8091H17.277V37.0151H17.0435C16.5182 38.1533 15.7011 39.1213 14.5921 39.919C13.4831 40.7069 12.0822 41.1009 10.3896 41.1009C8.98872 41.1009 7.74353 40.7945 6.65399 40.1816C5.56445 39.559 4.70838 38.6251 4.08578 37.3799C3.46319 36.125 3.15189 34.5442 3.15189 32.6375V18.3956H6.59562V32.404C6.59562 34.0384 7.05284 35.3419 7.96727 36.3147C8.89144 37.2875 10.0685 37.7739 11.4986 37.7739C12.3546 37.7739 13.2253 37.555 14.1105 37.1173C15.0055 36.6795 15.7546 36.0083 16.3577 35.1036C16.9706 34.1989 17.277 33.0461 17.277 31.6453Z" fill="#FF7A00" fill-opacity="0.35" shape-rendering="crispEdges"/>
    </g>
    <g filter="url(#filter2_d_692_112448)">
        <g filter="url(#filter3_f_692_112448)">
            <circle cx="11.8506" cy="9.52393" r="6.96387" fill="#E9EABB" fill-opacity="0.1"/>
        </g>
        <g filter="url(#filter4_f_692_112448)">
            <circle cx="11.8508" cy="9.5241" r="6.39373" fill="#E9EABB" fill-opacity="0.2"/>
        </g>
        <g filter="url(#filter5_f_692_112448)">
            <circle cx="11.8504" cy="9.52378" r="5.61997" fill="#E9EABB"/>
        </g>
    </g>
    <path d="M55.4961 27.2305V41H52.8594V27.2305H49.0215V25.1504H52.8594V24.7842C52.8594 22.7822 53.3281 21.3613 54.2656 20.5215C55.2129 19.6816 56.7852 19.2617 58.9824 19.2617C59.6855 19.2617 60.4424 19.2959 61.2529 19.3643C62.0732 19.4229 62.6885 19.4912 63.0986 19.5693V21.6934C62.8057 21.6445 62.21 21.5908 61.3115 21.5322C60.4229 21.4736 59.749 21.4443 59.29 21.4443C58.2744 21.4443 57.5078 21.5566 56.9902 21.7812C56.4727 22.0059 56.0918 22.3721 55.8477 22.8799C55.6133 23.3877 55.4961 24.0957 55.4961 25.0039V25.1504H62.6885V27.2305H55.4961ZM75.7988 38.9199H81.3652V41H66.9805V38.9199H73.1621V21.3418H68.9287V19.2617H75.7988V38.9199ZM99.1924 31.1123C99.1924 34.4131 98.582 36.9375 97.3613 38.6855C96.1504 40.4238 94.3584 41.293 91.9854 41.293C89.6123 41.293 87.8301 40.4287 86.6387 38.7002C85.4473 36.9619 84.8516 34.4326 84.8516 31.1123C84.8516 27.7041 85.4326 25.1553 86.5947 23.4658C87.7568 21.7764 89.583 20.9316 92.0732 20.9316C94.5049 20.9316 96.2969 21.7861 97.4492 23.4951C98.6113 25.1943 99.1924 27.7334 99.1924 31.1123ZM96.5117 31.1123C96.5117 28.2803 96.165 26.2344 95.4717 24.9746C94.7881 23.7051 93.6553 23.0703 92.0732 23.0703C90.4521 23.0703 89.2852 23.6953 88.5723 24.9453C87.8691 26.1953 87.5176 28.251 87.5176 31.1123C87.5176 33.8955 87.874 35.9316 88.5869 37.2207C89.3096 38.5 90.4521 39.1396 92.0146 39.1396C93.5674 39.1396 94.7051 38.4805 95.4277 37.1621C96.1504 35.8438 96.5117 33.8271 96.5117 31.1123ZM90.3008 32.8701V29.2227H93.7432V32.8701H90.3008Z" fill="#828282"/>
    <g filter="url(#filter6_d_692_112448)">
        <path d="M17.2847 40.8091V18.3956H20.6117V21.8977H20.9035C21.3705 20.7012 22.1244 19.7722 23.1653 19.1107C24.2062 18.4394 25.4563 18.1038 26.9155 18.1038C28.3941 18.1038 29.6247 18.4394 30.6073 19.1107C31.5995 19.7722 32.3729 20.7012 32.9274 21.8977H33.1609C33.7348 20.7401 34.5958 19.8208 35.7437 19.1398C36.8916 18.4492 38.2681 18.1038 39.8732 18.1038C41.8772 18.1038 43.5164 18.7313 44.7908 19.9862C46.0651 21.2314 46.7023 23.1721 46.7023 25.8084V40.8091H43.2586V25.8084C43.2586 24.1547 42.8062 22.9727 41.9015 22.2625C40.9968 21.5524 39.9316 21.1973 38.7059 21.1973C37.1299 21.1973 35.9091 21.674 35.0433 22.6274C34.1775 23.571 33.7446 24.7675 33.7446 26.217V40.8091H30.2425V25.4582C30.2425 24.1838 29.829 23.1575 29.0021 22.3793C28.1753 21.5913 27.11 21.1973 25.8065 21.1973C24.9115 21.1973 24.0749 21.4357 23.2966 21.9123C22.5281 22.389 21.9055 23.0505 21.4289 23.8969C20.9619 24.7335 20.7284 25.7014 20.7284 26.8007V40.8091H17.2847Z" fill="#4FC8FC" fill-opacity="0.95" shape-rendering="crispEdges"/>
    </g>
    <g filter="url(#filter7_d_692_112448)">
        <path d="M17.277 31.6453V18.3956H20.7208V40.8091H17.277V37.0151H17.0435C16.5182 38.1533 15.7011 39.1213 14.5921 39.919C13.4831 40.7069 12.0822 41.1009 10.3896 41.1009C8.98872 41.1009 7.74353 40.7945 6.65399 40.1816C5.56445 39.559 4.70838 38.6251 4.08578 37.3799C3.46319 36.125 3.15189 34.5442 3.15189 32.6375V18.3956H6.59562V32.404C6.59562 34.0384 7.05284 35.3419 7.96727 36.3147C8.89144 37.2875 10.0685 37.7739 11.4986 37.7739C12.3546 37.7739 13.2253 37.555 14.1105 37.1173C15.0055 36.6795 15.7546 36.0083 16.3577 35.1036C16.9706 34.1989 17.277 33.0461 17.277 31.6453Z" fill="#FF7A00" fill-opacity="0.35" shape-rendering="crispEdges"/>
    </g>
    <g filter="url(#filter8_d_692_112448)">
        <mask id="mask1_692_112448" style="mask-type:alpha" maskUnits="userSpaceOnUse" x="41" y="16" width="6" height="25">
            <rect width="5.18097" height="24.231" transform="matrix(1 0 0 -1 41.6836 40.7188)" fill="#D9D9D9"/>
        </mask>
        <g mask="url(#mask1_692_112448)">
            <path d="M43.062 40.8091V18.3956H46.5058V40.8091H43.062ZM44.8131 14.6601C44.1419 14.6601 43.563 14.4315 43.0766 13.9742C42.6 13.517 42.3616 12.9674 42.3616 12.3253C42.3616 11.6833 42.6 11.1337 43.0766 10.6764C43.563 10.2192 44.1419 9.99061 44.8131 9.99061C45.4843 9.99061 46.0583 10.2192 46.535 10.6764C47.0214 11.1337 47.2646 11.6833 47.2646 12.3253C47.2646 12.9674 47.0214 13.517 46.535 13.9742C46.0583 14.4315 45.4843 14.6601 44.8131 14.6601Z" fill="#0BC213"/>
        </g>
    </g>
    <g filter="url(#filter9_d_692_112448)">
        <path d="M44.6446 14.4557C44.0843 14.3623 43.624 14.1495 43.2635 13.8175C42.903 13.4855 42.6526 13.0691 42.5121 12.5686C42.3717 12.068 42.3512 11.5194 42.4507 10.9228C42.552 10.3159 42.7528 9.79895 43.0533 9.3719C43.3568 8.94268 43.7314 8.63062 44.1771 8.43571C44.6259 8.23864 45.12 8.1851 45.6594 8.27508C46.0796 8.34516 46.4453 8.48612 46.7565 8.69798C47.0677 8.90983 47.3076 9.17377 47.4762 9.48979C47.6447 9.8058 47.7238 10.1549 47.7134 10.537L46.7952 10.3839C46.7706 10.0999 46.6552 9.8327 46.4491 9.58239C46.2459 9.32991 45.942 9.16993 45.5374 9.10245C45.1795 9.04275 44.8501 9.08378 44.5492 9.22553C44.2514 9.36512 43.9991 9.59096 43.7924 9.90304C43.5888 10.213 43.4493 10.5936 43.3741 11.0449C43.2971 11.5065 43.3026 11.9207 43.3908 12.2872C43.4815 12.6543 43.6447 12.9547 43.8802 13.1886C44.1184 13.4229 44.419 13.5704 44.7821 13.6309C45.0207 13.6707 45.2442 13.6654 45.4526 13.6148C45.661 13.5643 45.8456 13.4724 46.0064 13.3393C46.1672 13.2062 46.2943 13.0354 46.3877 12.8271L47.3059 12.9802C47.1952 13.3243 47.0138 13.6206 46.7617 13.8691C46.5127 14.1155 46.2071 14.2938 45.8448 14.404C45.4856 14.512 45.0855 14.5293 44.6446 14.4557Z" fill="#0BC213"/>
        <path d="M44.4563 14.4242C45.0165 14.5176 45.521 14.4658 45.9697 14.2687C46.4184 14.0717 46.7904 13.7592 47.0857 13.3313C47.381 12.9033 47.5784 12.3911 47.6779 11.7946C47.7792 11.1877 47.757 10.6335 47.6113 10.132C47.4636 9.62752 47.2105 9.21077 46.8522 8.88176C46.4917 8.54972 46.0417 8.33872 45.5023 8.24874C45.0821 8.17866 44.6904 8.19331 44.3273 8.29269C43.9642 8.39207 43.6516 8.56387 43.3896 8.80808C43.1276 9.05228 42.9396 9.3568 42.8254 9.72163L43.7435 9.87477C43.859 9.61412 44.0548 9.39887 44.3311 9.22901C44.6052 9.05613 44.9445 9.00343 45.3491 9.07092C45.7071 9.13062 46.0053 9.27633 46.2439 9.50806C46.4803 9.73677 46.6456 10.0322 46.7398 10.3945C46.8319 10.7537 46.8403 11.159 46.765 11.6103C46.688 12.072 46.5483 12.4619 46.346 12.78C46.141 13.0977 45.8892 13.329 45.5905 13.4737C45.2892 13.6181 44.9569 13.66 44.5938 13.5994C44.3552 13.5596 44.1456 13.482 43.9649 13.3665C43.7842 13.2511 43.6394 13.1043 43.5305 12.9262C43.4216 12.7481 43.3568 12.5454 43.336 12.318L42.4179 12.1648C42.4109 12.5262 42.4863 12.8654 42.6441 13.1822C42.7997 13.4961 43.0309 13.7639 43.3378 13.9857C43.6425 14.2045 44.0153 14.3506 44.4563 14.4242Z" fill="#0BC213"/>
    </g>
    <g filter="url(#filter10_d_692_112448)">
        <g filter="url(#filter11_f_692_112448)">
            <circle cx="11.8506" cy="9.52393" r="6.96387" fill="#E9EABB" fill-opacity="0.1"/>
        </g>
        <g filter="url(#filter12_f_692_112448)">
            <circle cx="11.8508" cy="9.5241" r="6.39373" fill="#E9EABB" fill-opacity="0.2"/>
        </g>
        <g filter="url(#filter13_f_692_112448)">
            <circle cx="11.8504" cy="9.52378" r="5.61997" fill="#E9EABB"/>
        </g>
    </g>
    <defs>
        <filter id="filter0_d_692_112448" x="16.9525" y="18.104" width="30.0754" height="23.3625" filterUnits="userSpaceOnUse" color-interpolation-filters="sRGB">
            <feFlood flood-opacity="0" result="BackgroundImageFix"/>
            <feColorMatrix in="SourceAlpha" type="matrix" values="0 0 0 0 0 0 0 0 0 0 0 0 0 0 0 0 0 0 127 0" result="hardAlpha"/>
            <feOffset dy="0.32873"/>
            <feGaussianBlur stdDeviation="0.164365"/>
            <feComposite in2="hardAlpha" operator="out"/>
            <feColorMatrix type="matrix" values="0 0 0 0 0 0 0 0 0 0 0 0 0 0 0 0 0 0 0.25 0"/>
            <feBlend mode="normal" in2="BackgroundImageFix" result="effect1_dropShadow_692_112448"/>
            <feBlend mode="normal" in="SourceGraphic" in2="effect1_dropShadow_692_112448" result="shape"/>
        </filter>
        <filter id="filter1_d_692_112448" x="2.82361" y="18.3955" width="18.2278" height="23.363" filterUnits="userSpaceOnUse" color-interpolation-filters="sRGB">
            <feFlood flood-opacity="0" result="BackgroundImageFix"/>
            <feColorMatrix in="SourceAlpha" type="matrix" values="0 0 0 0 0 0 0 0 0 0 0 0 0 0 0 0 0 0 127 0" result="hardAlpha"/>
            <feOffset dy="0.32873"/>
            <feGaussianBlur stdDeviation="0.164365"/>
            <feComposite in2="hardAlpha" operator="out"/>
            <feColorMatrix type="matrix" values="0 0 0 0 0 0 0 0 0 0 0 0 0 0 0 0 0 0 0.25 0"/>
            <feBlend mode="normal" in2="BackgroundImageFix" result="effect1_dropShadow_692_112448"/>
            <feBlend mode="normal" in="SourceGraphic" in2="effect1_dropShadow_692_112448" result="shape"/>
        </filter>
        <filter id="filter2_d_692_112448" x="4.55799" y="2.56006" width="14.5871" height="14.5852" filterUnits="userSpaceOnUse" color-interpolation-filters="sRGB">
            <feFlood flood-opacity="0" result="BackgroundImageFix"/>
            <feColorMatrix in="SourceAlpha" type="matrix" values="0 0 0 0 0 0 0 0 0 0 0 0 0 0 0 0 0 0 127 0" result="hardAlpha"/>
            <feOffset dy="0.32873"/>
            <feGaussianBlur stdDeviation="0.164365"/>
            <feComposite in2="hardAlpha" operator="out"/>
            <feColorMatrix type="matrix" values="0 0 0 0 0 0 0 0 0 0 0 0 0 0 0 0 0 0 0.25 0"/>
            <feBlend mode="normal" in2="BackgroundImageFix" result="effect1_dropShadow_692_112448"/>
            <feBlend mode="normal" in="SourceGraphic" in2="effect1_dropShadow_692_112448" result="shape"/>
        </filter>
        <filter id="filter3_f_692_112448" x="4.76344" y="2.43678" width="14.1762" height="14.1743" filterUnits="userSpaceOnUse" color-interpolation-filters="sRGB">
            <feFlood flood-opacity="0" result="BackgroundImageFix"/>
            <feBlend mode="normal" in="SourceGraphic" in2="BackgroundImageFix" result="shape"/>
            <feGaussianBlur stdDeviation="0.0616369" result="effect1_foregroundBlur_692_112448"/>
        </filter>
        <filter id="filter4_f_692_112448" x="4.86532" y="2.53866" width="13.9725" height="13.971" filterUnits="userSpaceOnUse" color-interpolation-filters="sRGB">
            <feFlood flood-opacity="0" result="BackgroundImageFix"/>
            <feBlend mode="normal" in="SourceGraphic" in2="BackgroundImageFix" result="shape"/>
            <feGaussianBlur stdDeviation="0.295857" result="effect1_foregroundBlur_692_112448"/>
        </filter>
        <filter id="filter5_f_692_112448" x="5.68806" y="3.3614" width="12.3231" height="12.3246" filterUnits="userSpaceOnUse" color-interpolation-filters="sRGB">
            <feFlood flood-opacity="0" result="BackgroundImageFix"/>
            <feBlend mode="normal" in="SourceGraphic" in2="BackgroundImageFix" result="shape"/>
            <feGaussianBlur stdDeviation="0.271203" result="effect1_foregroundBlur_692_112448"/>
        </filter>
        <filter id="filter6_d_692_112448" x="16.9564" y="18.104" width="30.0754" height="23.3625" filterUnits="userSpaceOnUse" color-interpolation-filters="sRGB">
            <feFlood flood-opacity="0" result="BackgroundImageFix"/>
            <feColorMatrix in="SourceAlpha" type="matrix" values="0 0 0 0 0 0 0 0 0 0 0 0 0 0 0 0 0 0 127 0" result="hardAlpha"/>
            <feOffset dy="0.32873"/>
            <feGaussianBlur stdDeviation="0.164365"/>
            <feComposite in2="hardAlpha" operator="out"/>
            <feColorMatrix type="matrix" values="0 0 0 0 0 0 0 0 0 0 0 0 0 0 0 0 0 0 0.25 0"/>
            <feBlend mode="normal" in2="BackgroundImageFix" result="effect1_dropShadow_692_112448"/>
            <feBlend mode="normal" in="SourceGraphic" in2="effect1_dropShadow_692_112448" result="shape"/>
        </filter>
        <filter id="filter7_d_692_112448" x="2.82361" y="18.3955" width="18.2278" height="23.363" filterUnits="userSpaceOnUse" color-interpolation-filters="sRGB">
            <feFlood flood-opacity="0" result="BackgroundImageFix"/>
            <feColorMatrix in="SourceAlpha" type="matrix" values="0 0 0 0 0 0 0 0 0 0 0 0 0 0 0 0 0 0 127 0" result="hardAlpha"/>
            <feOffset dy="0.32873"/>
            <feGaussianBlur stdDeviation="0.164365"/>
            <feComposite in2="hardAlpha" operator="out"/>
            <feColorMatrix type="matrix" values="0 0 0 0 0 0 0 0 0 0 0 0 0 0 0 0 0 0 0.25 0"/>
            <feBlend mode="normal" in2="BackgroundImageFix" result="effect1_dropShadow_692_112448"/>
            <feBlend mode="normal" in="SourceGraphic" in2="effect1_dropShadow_692_112448" result="shape"/>
        </filter>
        <filter id="filter8_d_692_112448" x="42.0346" y="16.4878" width="5.15746" height="24.8884" filterUnits="userSpaceOnUse" color-interpolation-filters="sRGB">
            <feFlood flood-opacity="0" result="BackgroundImageFix"/>
            <feColorMatrix in="SourceAlpha" type="matrix" values="0 0 0 0 0 0 0 0 0 0 0 0 0 0 0 0 0 0 127 0" result="hardAlpha"/>
            <feOffset dy="0.32873"/>
            <feGaussianBlur stdDeviation="0.164365"/>
            <feComposite in2="hardAlpha" operator="out"/>
            <feColorMatrix type="matrix" values="0 0 0 0 0 0 0 0 0 0 0 0 0 0 0 0 0 0 0.25 0"/>
            <feBlend mode="normal" in2="BackgroundImageFix" result="effect1_dropShadow_692_112448"/>
            <feBlend mode="normal" in="SourceGraphic" in2="effect1_dropShadow_692_112448" result="shape"/>
        </filter>
        <filter id="filter9_d_692_112448" x="41.6088" y="7.82617" width="6.91527" height="7.70727" filterUnits="userSpaceOnUse" color-interpolation-filters="sRGB">
            <feFlood flood-opacity="0" result="BackgroundImageFix"/>
            <feColorMatrix in="SourceAlpha" type="matrix" values="0 0 0 0 0 0 0 0 0 0 0 0 0 0 0 0 0 0 127 0" result="hardAlpha"/>
            <feOffset dy="0.32873"/>
            <feGaussianBlur stdDeviation="0.164365"/>
            <feComposite in2="hardAlpha" operator="out"/>
            <feColorMatrix type="matrix" values="0 0 0 0 0 0 0 0 0 0 0 0 0 0 0 0 0 0 0.25 0"/>
            <feBlend mode="normal" in2="BackgroundImageFix" result="effect1_dropShadow_692_112448"/>
            <feBlend mode="normal" in="SourceGraphic" in2="effect1_dropShadow_692_112448" result="shape"/>
        </filter>
        <filter id="filter10_d_692_112448" x="4.55799" y="2.56006" width="14.5871" height="14.5852" filterUnits="userSpaceOnUse" color-interpolation-filters="sRGB">
            <feFlood flood-opacity="0" result="BackgroundImageFix"/>
            <feColorMatrix in="SourceAlpha" type="matrix" values="0 0 0 0 0 0 0 0 0 0 0 0 0 0 0 0 0 0 127 0" result="hardAlpha"/>
            <feOffset dy="0.32873"/>
            <feGaussianBlur stdDeviation="0.164365"/>
            <feComposite in2="hardAlpha" operator="out"/>
            <feColorMatrix type="matrix" values="0 0 0 0 0 0 0 0 0 0 0 0 0 0 0 0 0 0 0.25 0"/>
            <feBlend mode="normal" in2="BackgroundImageFix" result="effect1_dropShadow_692_112448"/>
            <feBlend mode="normal" in="SourceGraphic" in2="effect1_dropShadow_692_112448" result="shape"/>
        </filter>
        <filter id="filter11_f_692_112448" x="4.76344" y="2.43678" width="14.1762" height="14.1743" filterUnits="userSpaceOnUse" color-interpolation-filters="sRGB">
            <feFlood flood-opacity="0" result="BackgroundImageFix"/>
            <feBlend mode="normal" in="SourceGraphic" in2="BackgroundImageFix" result="shape"/>
            <feGaussianBlur stdDeviation="0.0616369" result="effect1_foregroundBlur_692_112448"/>
        </filter>
        <filter id="filter12_f_692_112448" x="4.86532" y="2.53866" width="13.9725" height="13.971" filterUnits="userSpaceOnUse" color-interpolation-filters="sRGB">
            <feFlood flood-opacity="0" result="BackgroundImageFix"/>
            <feBlend mode="normal" in="SourceGraphic" in2="BackgroundImageFix" result="shape"/>
            <feGaussianBlur stdDeviation="0.295857" result="effect1_foregroundBlur_692_112448"/>
        </filter>
        <filter id="filter13_f_692_112448" x="5.68806" y="3.3614" width="12.3231" height="12.3246" filterUnits="userSpaceOnUse" color-interpolation-filters="sRGB">
            <feFlood flood-opacity="0" result="BackgroundImageFix"/>
            <feBlend mode="normal" in="SourceGraphic" in2="BackgroundImageFix" result="shape"/>
            <feGaussianBlur stdDeviation="0.271203" result="effect1_foregroundBlur_692_112448"/>
        </filter>
    </defs>
</svg>
