<svg width="40" height="41" viewBox="0 0 40 41" fill="none" xmlns="http://www.w3.org/2000/svg">
    <rect y="0.222229" width="40" height="40" rx="10" fill="#934700"/>
    <circle cx="20" cy="20.7222" r="7.5" fill="#7E869E" fill-opacity="0.25"/>
    <path d="M17.9127 33.416L17.5671 33.9064L17.9127 33.416ZM17.4776 32.4278L16.8785 32.4616L17.4776 32.4278ZM17.5101 32.8039L16.9229 32.9271L17.5101 32.8039ZM22.5224 32.4278L23.1214 32.4616L22.5224 32.4278ZM22.4899 32.8038L23.0771 32.927L22.4899 32.8038ZM22.0873 33.416L22.4329 33.9064L22.0873 33.416ZM16.3682 27.6873L16.9201 27.452L16.3682 27.6873ZM15.6231 26.8123L15.2726 27.2993L15.6231 26.8123ZM16.1301 27.2225L15.6617 27.5974L16.1301 27.2225ZM24.376 26.8123L24.7265 27.2993L24.376 26.8123ZM23.6308 27.6875L23.0788 27.4523L23.6308 27.6875ZM23.8689 27.2226L24.3374 27.5975L23.8689 27.2226ZM20 13.2222V13.8222C23.8108 13.8222 26.9 16.9115 26.9 20.7222H27.5H28.1C28.1 16.2487 24.4735 12.6222 20 12.6222V13.2222ZM27.5 20.7222H26.9C26.9 23.0295 25.7675 25.0717 24.0256 26.3253L24.376 26.8123L24.7265 27.2993C26.768 25.83 28.1 23.4322 28.1 20.7222H27.5ZM23.6308 27.6875L23.0788 27.4523C22.4115 29.0181 22.0195 30.69 21.9233 32.394L22.5224 32.4278L23.1214 32.4616C23.2097 30.8967 23.5698 29.3611 24.1828 27.9227L23.6308 27.6875ZM21.7891 33.5777L21.5207 33.041C20.5635 33.5196 19.4365 33.5196 18.4793 33.041L18.2109 33.5777L17.9426 34.1144C19.2376 34.7619 20.7624 34.7619 22.0574 34.1144L21.7891 33.5777ZM17.4776 32.4278L18.0766 32.3939C17.9803 30.6897 17.5877 29.0179 16.9201 27.452L16.3682 27.6873L15.8163 27.9226C16.4295 29.3612 16.7901 30.8968 16.8785 32.4616L17.4776 32.4278ZM15.6231 26.8123L15.9737 26.3253C14.2321 25.0717 13.1 23.0294 13.1 20.7222H12.5H11.9C11.9 23.4319 13.2315 25.8299 15.2726 27.2993L15.6231 26.8123ZM12.5 20.7222H13.1C13.1 16.9115 16.1892 13.8222 20 13.8222V13.2222V12.6222C15.5265 12.6222 11.9 16.2487 11.9 20.7222H12.5ZM18.2109 33.5777L18.4793 33.041C18.3021 32.9524 18.2737 32.9364 18.2584 32.9256L17.9127 33.416L17.5671 33.9064C17.6748 33.9823 17.8042 34.0452 17.9426 34.1144L18.2109 33.5777ZM17.4776 32.4278L16.8785 32.4616C16.8885 32.6378 16.8957 32.7973 16.9229 32.9271L17.5101 32.8039L18.0973 32.6807C18.0974 32.681 18.0945 32.667 18.0904 32.6158C18.0863 32.5649 18.0825 32.4976 18.0766 32.3939L17.4776 32.4278ZM17.9127 33.416L18.2584 32.9256C18.1643 32.8592 18.121 32.7934 18.0973 32.6807L17.5101 32.8039L16.9229 32.9271C17.0089 33.3369 17.2248 33.6652 17.5671 33.9064L17.9127 33.416ZM22.5224 32.4278L21.9233 32.394C21.9175 32.4977 21.9137 32.5649 21.9096 32.6158C21.9055 32.667 21.9026 32.681 21.9027 32.6807L22.4899 32.8038L23.0771 32.927C23.1043 32.7972 23.1115 32.6377 23.1214 32.4616L22.5224 32.4278ZM21.7891 33.5777L22.0574 34.1144C22.1958 34.0452 22.3252 33.9823 22.4329 33.9064L22.0873 33.416L21.7416 32.9256C21.7263 32.9364 21.6979 32.9524 21.5207 33.041L21.7891 33.5777ZM22.4899 32.8038L21.9027 32.6807C21.879 32.7934 21.8357 32.8592 21.7416 32.9256L22.0873 33.416L22.4329 33.9064C22.7752 33.6652 22.9912 33.3368 23.0771 32.927L22.4899 32.8038ZM16.3682 27.6873L16.9201 27.452C16.8295 27.2395 16.7465 27.0325 16.5986 26.8476L16.1301 27.2225L15.6617 27.5974C15.6847 27.6262 15.7034 27.6579 15.8163 27.9226L16.3682 27.6873ZM15.6231 26.8123L15.2726 27.2993C15.5892 27.5272 15.6409 27.5714 15.6617 27.5974L16.1301 27.2225L16.5986 26.8476C16.4484 26.66 16.2191 26.502 15.9737 26.3253L15.6231 26.8123ZM24.376 26.8123L24.0256 26.3253C23.7801 26.5019 23.5507 26.6599 23.4005 26.8477L23.8689 27.2226L24.3374 27.5975C24.3582 27.5715 24.4098 27.5272 24.7265 27.2993L24.376 26.8123ZM23.6308 27.6875L24.1828 27.9227C24.2956 27.6579 24.3143 27.6262 24.3374 27.5975L23.8689 27.2226L23.4005 26.8477C23.2524 27.0326 23.1694 27.2396 23.0788 27.4523L23.6308 27.6875Z" fill="white"/>
    <path d="M23.75 27.5972V27.5972C21.3894 28.7776 18.6106 28.7775 16.25 27.5972V27.5972" stroke="white" stroke-width="1.2"/>
    <path d="M9.79492 13.4871L6.00019 12.2222" stroke="white" stroke-width="2" stroke-linecap="round"/>
    <path d="M8.79492 24.2222L5.00019 25.4871" stroke="white" stroke-width="2" stroke-linecap="round"/>
    <path d="M30 13.4871L33.7947 12.2222" stroke="white" stroke-width="2" stroke-linecap="round"/>
    <path d="M31 24.2222L34.7947 25.4871" stroke="white" stroke-width="2" stroke-linecap="round"/>
    <path d="M20 9.22223V5.22223" stroke="white" stroke-width="2" stroke-linecap="round"/>
</svg>
