<svg width="40" height="40" viewBox="0 0 40 40" fill="none" xmlns="http://www.w3.org/2000/svg">
    <rect width="40" height="40" rx="10" fill="#8FACA1"/>
    <path d="M19.3418 16.8747C19.4919 16.775 19.7154 16.6944 19.9727 16.7643C20.23 16.8344 20.383 17.0172 20.4619 17.1794C20.5316 17.3226 20.5581 17.4754 20.5723 17.5924C20.6007 17.8284 20.5996 18.1508 20.5996 18.5026V23.0671H23.1699C23.9256 23.0671 24.5615 23.0654 25.04 23.1364C25.5235 23.2082 26.0238 23.3782 26.3066 23.8727C26.5893 24.3672 26.4821 24.8845 26.2988 25.3376C26.1174 25.7861 25.7934 26.3336 25.4102 26.985L21.4482 33.7214C21.2699 34.0246 21.107 34.3029 20.9629 34.4919C20.8913 34.5857 20.7902 34.7043 20.6572 34.7926C20.507 34.8922 20.2835 34.972 20.0264 34.902C19.769 34.8319 19.617 34.6491 19.5381 34.487C19.4683 34.3436 19.4409 34.191 19.4268 34.0739C19.3983 33.8379 19.3994 33.5156 19.3994 33.1637V28.6003H16.8301C16.0742 28.6003 15.4376 28.602 14.959 28.5309C14.4756 28.4591 13.9752 28.289 13.6924 27.7946C13.4095 27.3 13.5169 26.7819 13.7002 26.3288C13.8817 25.8802 14.2057 25.3327 14.5889 24.6813L18.5518 17.945L18.5605 17.9303L18.5654 17.9225C18.7385 17.6282 18.8956 17.3587 19.0361 17.1745C19.1077 17.0807 19.2089 16.963 19.3418 16.8747Z" fill="#7E869E" fill-opacity="0.25" stroke="white" stroke-width="1.2"/>
    <path d="M20 4.4C23.2502 4.4 26.0942 6.1365 27.6562 8.7291C27.9131 9.15546 28.105 9.47399 28.2412 9.69785C28.3092 9.80962 28.3634 9.89678 28.4033 9.96055C28.423 9.992 28.439 10.0171 28.4512 10.0357C28.4571 10.0448 28.4623 10.0529 28.4658 10.0582C28.4681 10.0616 28.47 10.0641 28.4707 10.065C28.8131 10.5423 29.0018 10.7326 29.1924 10.8404C29.3831 10.9482 29.6429 11.0122 30.2285 11.0592C30.3171 11.0663 30.5157 11.067 31 11.067C33.5404 11.067 35.5994 13.1263 35.5996 15.6666V17.6666C35.5994 19.9875 33.8809 21.9062 31.6465 22.2203C31.6324 21.7667 31.609 21.3701 31.5625 21.0201C33.1166 20.7614 34.314 19.4487 34.3955 17.8414L34.4004 17.6666V15.6666C34.4002 13.8476 32.9712 12.3621 31.1748 12.2711L31 12.2662C30.5522 12.2662 30.2836 12.2676 30.1328 12.2555C29.5322 12.2073 29.0394 12.1327 28.6016 11.8854C28.1641 11.6379 27.8462 11.2546 27.4951 10.7652C27.4062 10.6411 27.129 10.1784 26.6289 9.34824C25.2749 7.10101 22.8122 5.59922 20 5.59922C16.8573 5.59938 14.151 7.47474 12.9414 10.1695C12.4401 11.2865 11.3735 12.2662 10 12.2662C7.57026 12.2664 5.59982 14.2369 5.59961 16.6666L5.60547 16.8863C5.69397 18.6828 6.86105 20.1946 8.47168 20.7916C8.41107 21.1461 8.37944 21.5521 8.36035 22.0221C6.06796 21.3207 4.40055 19.1885 4.40039 16.6666C4.4006 13.5741 6.90752 11.0672 10 11.067C10.7606 11.067 11.4741 10.5084 11.8467 9.67832C13.2427 6.56816 16.3675 4.40016 20 4.4Z" fill="white"/>
</svg>