<svg width="40" height="40" viewBox="0 0 40 40" fill="none" xmlns="http://www.w3.org/2000/svg">
    <rect x="1" y="1" width="38" height="38" rx="9" fill="#4FC8FC" stroke="#F7FA44" stroke-width="2"/>
    <path d="M5.27539 11.6539C5.27539 11.6539 10.568 7.99999 14.4101 8C20.4999 8.00001 21.7164 12.0291 25.9808 12.8719C30.9122 13.8464 35.7245 11.6539 35.7245 11.6539" stroke="white" stroke-width="1.21796" stroke-linecap="round"/>
    <path d="M5.27539 20.7886C5.27539 20.7886 10.568 17.1347 14.4101 17.1347C20.4999 17.1347 21.7164 21.1638 25.9808 22.0066C30.9122 22.9812 35.7245 20.7886 35.7245 20.7886" stroke="white" stroke-width="1.21796" stroke-linecap="round"/>
    <path d="M5.27539 30.5323C5.27539 30.5323 10.568 26.8784 14.4101 26.8784C20.4999 26.8785 21.7164 30.9076 25.9808 31.7503C30.9122 32.7249 35.7245 30.5323 35.7245 30.5323" stroke="white" stroke-width="1.21796" stroke-linecap="round"/>
</svg>